<svg xmlns="http://www.w3.org/2000/svg" width="512" height="512" viewBox="0 0 512 512" version="1.1"><path d="M 52.905 327.657 C 44.962 340.808, 45.313 348.791, 54.102 354.839 C 56.938 356.790, 58.452 357.110, 63.251 356.775 C 70.521 356.266, 73.137 353.930, 80.580 341.306 C 83.561 336.249, 86 331.922, 86 331.691 C 86 331.461, 83.862 330.476, 81.250 329.503 C 78.638 328.531, 72.651 325.770, 67.946 323.367 C 63.241 320.965, 59.109 319, 58.763 319 C 58.417 319, 55.781 322.896, 52.905 327.657 M 445.500 323.100 C 436.520 328.045, 429.907 330.615, 417.500 333.983 L 407.500 336.697 407.186 340.986 C 406.808 346.138, 408.220 349.887, 411.823 353.304 C 417.027 358.239, 426.781 358.427, 431.836 353.689 C 434.628 351.072, 454.429 318.386, 452.776 319.123 C 452.624 319.191, 449.350 320.980, 445.500 323.100 M 137.460 339.065 C 137.098 339.651, 137.073 341.563, 137.404 343.315 C 139.617 355.025, 153.297 360.670, 161.907 353.425 C 164.243 351.459, 172 339.934, 172 338.428 C 172 337.425, 138.087 338.050, 137.460 339.065 M 227 340.788 C 227 342.322, 228.012 345.584, 229.250 348.038 C 233.589 356.642, 244.085 359.223, 251.558 353.524 C 254.074 351.605, 262 340.146, 262 338.428 C 262 338.193, 254.125 338, 244.500 338 L 227 338 227 340.788 M 317.246 342.494 C 317.921 348.479, 321.757 353.360, 327.516 355.559 C 335.887 358.756, 342.957 354.722, 349.308 343.127 L 352.115 338 334.428 338 L 316.740 338 317.246 342.494 M 20.500 387.959 C 17.266 389.306, 13.651 393.870, 7.642 404.194 C 2.909 412.327, 2.001 414.663, 2.004 418.694 C 2.008 424.412, 4.559 429.125, 9.241 432.065 C 13.395 434.674, 21.769 434.300, 25.791 431.326 C 27.281 430.225, 31.535 424.189, 35.244 417.912 C 40.878 408.380, 41.989 405.759, 41.991 402 C 41.994 393.430, 35.493 386.955, 27 387.067 C 24.525 387.100, 21.600 387.501, 20.500 387.959 M 110.500 387.959 C 107.286 389.298, 103.663 393.839, 97.547 404.194 C 91.046 415.200, 90.163 420.169, 93.647 426.136 C 96.919 431.737, 101.587 434.251, 107.791 433.753 C 110.900 433.504, 114.156 432.528, 115.684 431.387 C 117.114 430.319, 121.218 424.549, 124.804 418.564 C 129.705 410.386, 131.422 406.543, 131.717 403.092 C 132.485 394.137, 125.924 386.942, 117.102 387.063 C 114.571 387.098, 111.600 387.501, 110.500 387.959 M 200.500 387.943 C 197.004 389.369, 193.663 393.542, 187.558 404.106 C 182.550 412.771, 181.615 415.145, 181.615 419.198 C 181.615 424.647, 183.666 428.115, 189.092 431.839 C 191.837 433.723, 193.473 434.100, 197.500 433.777 C 200.250 433.556, 203.742 432.562, 205.259 431.567 C 206.777 430.572, 211.012 424.789, 214.672 418.715 C 219.700 410.369, 221.421 406.552, 221.718 403.086 C 222.484 394.137, 215.921 386.942, 207.102 387.063 C 204.571 387.098, 201.600 387.494, 200.500 387.943 M 289.214 388.665 C 285.877 390.310, 278.883 400.479, 273.367 411.705 C 270.200 418.151, 270.753 423.511, 275.097 428.458 C 278.835 432.715, 282.972 434.376, 288.333 433.772 C 294.915 433.030, 297.459 430.686, 304.672 418.715 C 309.689 410.387, 311.423 406.545, 311.724 403.086 C 312.757 391.210, 300.275 383.213, 289.214 388.665 M 378.984 388.863 C 376.611 390.132, 373.958 393.241, 370.664 398.613 C 362.667 411.654, 360.727 416.424, 361.518 421.104 C 362.310 425.793, 366.608 431.181, 371.012 433.005 C 374.982 434.649, 382.087 433.787, 385.687 431.223 C 389.780 428.308, 401.131 408.107, 401.683 402.756 C 402.882 391.116, 389.775 383.093, 378.984 388.863 M 63.500 466.861 C 61.850 467.880, 59.779 469.566, 58.898 470.607 C 55.875 474.181, 46.285 491.501, 45.767 494.323 C 44.936 498.853, 46.926 504.536, 50.584 508.082 C 53.456 510.865, 54.864 511.433, 59.739 511.774 C 67.981 512.351, 70.862 510.080, 78.860 496.700 C 86.295 484.261, 87.485 478.991, 84.210 473 C 80.123 465.523, 70.354 462.627, 63.500 466.861 M 153.500 466.861 C 151.850 467.880, 149.782 469.566, 148.905 470.607 C 145.830 474.258, 136.807 490.117, 135.865 493.526 C 134.516 498.413, 136.263 503.893, 140.470 507.970 C 143.465 510.874, 144.820 511.430, 149.739 511.774 C 158.038 512.355, 160.906 510.074, 168.985 496.470 C 174.886 486.535, 175.500 484.981, 175.500 480 C 175.500 475.797, 174.934 473.707, 173.101 471.137 C 168.861 465.191, 159.507 463.150, 153.500 466.861 M 243.500 466.801 C 239.399 469.415, 238.169 471.004, 231.450 482.366 C 226.522 490.699, 225.615 492.976, 225.615 497.023 C 225.615 502.753, 228.872 508.214, 233.651 510.495 C 238.017 512.580, 244.846 512.391, 248.635 510.081 C 253.005 507.416, 265.108 487.220, 265.751 481.521 C 266.343 476.265, 263.944 470.808, 259.718 467.799 C 255.464 464.770, 247.459 464.277, 243.500 466.801 M 333.366 466.919 C 329.613 469.207, 326.897 472.779, 320.569 483.750 C 314.681 493.957, 314.014 497.943, 317.199 503.895 C 320.045 509.214, 324.787 512.001, 330.984 511.996 C 338.076 511.990, 340.959 509.516, 348.548 496.921 C 356.554 483.633, 357.553 478.998, 353.792 472.604 C 349.618 465.509, 340.047 462.845, 333.366 466.919" stroke="none" fill="#4ed0e0" fill-rule="evenodd"/><path d="M 207 0.619 C 185.852 4.593, 175.164 7.906, 161.500 14.725 C 131.369 29.759, 105.469 56.605, 93.083 85.639 L 90.241 92.302 82.870 94.999 C 42.557 109.752, 14.386 141.265, 3.307 184 C -0.034 196.887, -0.884 218.367, 1.397 232.237 C 5.704 258.416, 16.937 280.725, 35.434 299.834 C 48.477 313.309, 60.524 321.019, 83 330.274 C 101.645 337.952, 90.825 337.500, 256 337.500 C 396.653 337.500, 403.871 337.413, 411.500 335.627 C 430.008 331.294, 449.026 322.803, 462.013 313.074 C 471.440 306.013, 485.139 291.390, 491.569 281.524 C 501.021 267.024, 507.823 249.835, 510.132 234.615 C 510.726 230.702, 511.614 226.719, 512.106 225.764 C 513.202 223.635, 513.308 199, 512.221 199 C 511.792 199, 510.871 195.377, 510.175 190.949 C 507.494 173.911, 498.566 153.048, 487.714 138.462 C 468.671 112.867, 439.736 94.991, 408.496 89.521 C 398.248 87.726, 376.214 87.427, 368.114 88.972 C 365.151 89.538, 362.208 90, 361.573 90 C 360.939 90, 358.748 86.421, 356.705 82.046 C 347.409 62.142, 328.600 39.698, 310.355 26.739 C 294.800 15.690, 276.181 7.351, 257 2.842 C 250.443 1.301, 244.043 0.765, 229 0.497 C 218.275 0.306, 208.375 0.361, 207 0.619 M 0.392 213 C 0.392 220.425, 0.549 223.463, 0.742 219.750 C 0.934 216.037, 0.934 209.963, 0.742 206.250 C 0.549 202.537, 0.392 205.575, 0.392 213" stroke="none" fill="#6a85b5" fill-rule="evenodd"/></svg>